# xmcd
#
# Track frame offsets:
#	150
#	14040
#	31757
#	52070
#	78585
#	90705
#	108477
#	116912
#	132480
#	146592
#	165737
#
# Disc length: 2345 seconds
# Revision: 1
# Processed by: cddbd v1.5.2PL0 Copyright (c) Steve Scherf et al.
# Submitted via: dBpowerAMP V12.0
#
DISCID=9c09270b
DTITLE=Gillian Welch - Hell Among the Yearlings
DYEAR=1998
DGENRE=Americana
TTITLE0=Caleb Meyer
TTITLE1=Good Til Now
TTITLE2=The Devil Had a Hold Of Me
TTITLE3=My Morphine
TTITLE4=One Morning
TTITLE5=Miner's Refrain
TTITLE6=Honey Now
TTITLE7=I'm Not Afraid to Die
TTITLE8=Rock of Ages
TTITLE9=Whiskey Girl
TTITLE10=Winter's Come and Gone
EXTD=
EXTT0=
EXTT1=
EXTT2=
EXTT3=
EXTT4=
EXTT5=
EXTT6=
EXTT7=
EXTT8=
EXTT9=
EXTT10=
PLAYORDER=
